<svg xmlns="http://www.w3.org/2000/svg" width="1600" height="900" viewBox="0 0 1600 900" role="img" aria-label="World map placeholder">
	<defs>
		<linearGradient id="ocean" x1="0" y1="0" x2="1" y2="1">
			<stop offset="0%" stop-color="#122235" />
			<stop offset="100%" stop-color="#0a131f" />
		</linearGradient>
		<radialGradient id="glow" cx="0.3" cy="0.2" r="0.6">
			<stop offset="0%" stop-color="#2a4a63" stop-opacity="0.5" />
			<stop offset="100%" stop-color="#122235" stop-opacity="0" />
		</radialGradient>
	</defs>
	<rect width="1600" height="900" fill="url(#ocean)" />
	<rect width="1600" height="900" fill="url(#glow)" />
	<path d="M140 560 L320 480 L520 520 L660 430 L760 470 L820 620 L700 720 L520 700 L340 740 L180 660 Z" fill="#2a3b2f" stroke="#3e5a45" stroke-width="6" />
	<path d="M860 250 L1040 180 L1240 240 L1360 360 L1300 470 L1120 510 L930 440 L820 340 Z" fill="#2f3f34" stroke="#46614c" stroke-width="6" />
	<path d="M980 640 L1120 600 L1320 650 L1420 740 L1360 820 L1160 840 L980 780 L900 700 Z" fill="#2a352b" stroke="#3e5544" stroke-width="6" />
	<path d="M360 200 L520 160 L640 200 L700 280 L640 360 L520 380 L400 320 L320 240 Z" fill="#303f35" stroke="#4a6a54" stroke-width="6" />
	<circle cx="1180" cy="320" r="12" fill="#8b6f3f" />
	<circle cx="540" cy="640" r="10" fill="#8b6f3f" />
	<circle cx="780" cy="760" r="10" fill="#8b6f3f" />
	<path d="M0 820 C240 760 460 780 640 820 C820 860 1040 900 1600 860" stroke="#1b2d40" stroke-width="16" fill="none" opacity="0.6" />
	<path d="M0 120 C220 80 460 90 680 140 C900 190 1180 210 1600 140" stroke="#1b2d40" stroke-width="12" fill="none" opacity="0.45" />
	<g opacity="0.4">
		<circle cx="220" cy="300" r="4" fill="#e2e8f0" />
		<circle cx="260" cy="280" r="3" fill="#e2e8f0" />
		<circle cx="300" cy="310" r="2" fill="#e2e8f0" />
		<circle cx="1280" cy="120" r="3" fill="#e2e8f0" />
		<circle cx="1320" cy="150" r="2" fill="#e2e8f0" />
		<circle cx="1200" cy="160" r="2" fill="#e2e8f0" />
	</g>
</svg>
